<svg width="64" height="64" viewBox="0 0 64 64" fill="none" xmlns="http://www.w3.org/2000/svg">
<path d="M30.6152 10.5751V14.8999L43.519 7.44993L30.6152 0V4.36123C22.874 4.6128 15.6717 8.16358 10.7438 14.1932L15.5516 18.1225C19.2951 13.5419 24.7457 10.8237 30.6152 10.5751Z" fill="#FFE455"/>
<path d="M59.6386 30.6152C59.3869 22.8737 55.8362 15.6716 49.8064 10.7437L45.8773 15.5514C50.4578 19.295 53.1758 24.7455 53.4244 30.6152H49.1L56.5499 43.5189L64 30.6152H59.6386Z" fill="#FFE455"/>
<path d="M33.3845 53.4244V49.1L20.4809 56.55L33.3845 64V59.6386C41.126 59.3868 48.3284 55.8361 53.256 49.8063L48.4483 45.8771C44.7048 50.4576 39.2541 53.1757 33.3845 53.4244Z" fill="#FFE455"/>
<path d="M10.5752 33.3845H14.8998L7.45006 20.4808L0 33.3845H4.36135C4.61303 41.1259 8.1637 48.3283 14.1934 53.2559L18.1226 48.4481C13.542 44.7047 10.8239 39.254 10.5752 33.3845Z" fill="#FFE455"/>
</svg>
